<svg width="122" height="93" viewBox="0 0 122 93" version="1.1" xmlns="http://www.w3.org/2000/svg" xmlns:xlink="http://www.w3.org/1999/xlink">
<title>icon</title>
<desc>Created using Figma</desc>
<g id="Canvas" transform="translate(-7790 2250)">
<g id="icon">
<g id="Group 12">
<g id="Vector">
<use xlink:href="#path0_fill" transform="translate(7800 -2230)" fill="#9AE0E6"/>
</g>
<g id="Vector">
<use xlink:href="#path0_fill" transform="translate(7901 -2199)" fill="#9AE0E6"/>
</g>
<g id="Vector">
<use xlink:href="#path1_fill" transform="translate(7789 -2180)" fill="#9AE0E6"/>
</g>
<g id="Ellipse">
<use xlink:href="#path2_fill" transform="translate(7801 -2211)" fill="#9AE0E6"/>
</g>
<g id="Ellipse">
<use xlink:href="#path2_fill" transform="translate(7858 -2250)" fill="#9AE0E6"/>
</g>
<g id="Ellipse">
<use xlink:href="#path2_fill" transform="translate(7871 -2241)" fill="#9AE0E6"/>
</g>
<g id="Ellipse">
<use xlink:href="#path2_fill" transform="translate(7901 -2182)" fill="#9AE0E6"/>
</g>
</g>
<g id="Rectangle 11.2">
<use xlink:href="#path3_fill" transform="translate(7812.74 -2192.89)" fill="#2D3666"/>
</g>
<g id="Rectangle 11.1">
<use xlink:href="#path3_fill" transform="translate(7812.74 -2211.19)" fill="#78D5DD"/>
</g>
<g id="Rectangle 11">
<use xlink:href="#path3_fill" transform="translate(7812.74 -2229.19)" fill="#E8F3FF"/>
<mask id="mask0_outline_out">
<rect id="mask0_outline_inv" fill="white" x="-5" y="-5" width="85" height="45" transform="translate(7812.74 -2229.19)"/>
<use xlink:href="#path3_fill" fill="black" transform="translate(7812.74 -2229.19)"/>
</mask>
<g mask="url(#mask0_outline_out)">
<use xlink:href="#path4_stroke_2x" transform="translate(7812.74 -2229.19)" fill="#575F8C"/>
</g>
</g>
</g>
</g>
<defs>
<path id="path0_fill" d="M 5.13176 1.51943L 3.95349 3.58139C 3.8649 3.73642 3.73642 3.8649 3.58139 3.95349L 1.51943 5.13176C 0.847611 5.51565 0.847611 6.48435 1.51943 6.86824L 3.58139 8.04651C 3.73642 8.1351 3.8649 8.26358 3.95349 8.41861L 5.13176 10.4806C 5.51565 11.1524 6.48435 11.1524 6.86824 10.4806L 8.04651 8.41861C 8.1351 8.26358 8.26358 8.1351 8.41861 8.04651L 10.4806 6.86824C 11.1524 6.48435 11.1524 5.51565 10.4806 5.13176L 8.41861 3.95349C 8.26358 3.8649 8.1351 3.73642 8.04651 3.58139L 6.86824 1.51943C 6.48435 0.847611 5.51565 0.847611 5.13176 1.51943Z"/>
<path id="path1_fill" d="M 5.13176 1.51943L 3.95349 3.58139C 3.8649 3.73642 3.73642 3.8649 3.58139 3.95349L 1.51943 5.13176C 0.847611 5.51565 0.84761 6.48435 1.51943 6.86824L 3.58139 8.04651C 3.73642 8.1351 3.8649 8.26358 3.95349 8.41861L 5.13176 10.4806C 5.51565 11.1524 6.48435 11.1524 6.86824 10.4806L 8.04651 8.41861C 8.1351 8.26358 8.26358 8.1351 8.41861 8.04651L 10.4806 6.86824C 11.1524 6.48435 11.1524 5.51565 10.4806 5.13176L 8.41861 3.95349C 8.26358 3.8649 8.1351 3.73642 8.04651 3.58139L 6.86824 1.51943C 6.48435 0.84761 5.51565 0.847611 5.13176 1.51943Z"/>
<path id="path2_fill" d="M 4.5 2.25C 4.5 3.49264 3.49264 4.5 2.25 4.5C 1.00736 4.5 0 3.49264 0 2.25C 0 1.00736 1.00736 0 2.25 0C 3.49264 0 4.5 1.00736 4.5 2.25Z"/>
<path id="path3_fill" d="M 1.1472 19.3302C -0.391035 18.605 -0.379856 16.4128 1.16569 15.7034L 33.3918 0.911646C 36.04 -0.303883 39.0867 -0.303881 41.7349 0.911645L 73.9611 15.7034C 75.5066 16.4128 75.5178 18.605 73.9796 19.3302L 41.8274 34.4868C 39.1272 35.7597 35.9996 35.7597 33.2994 34.4868L 1.1472 19.3302Z"/>
<path id="path4_stroke_2x" d="M 1.1472 19.3302L 3.066 15.2598L 1.1472 19.3302ZM 1.16569 15.7034L -0.711505 11.6137L 1.16569 15.7034ZM 33.3918 0.911646L 35.269 5.00141L 35.269 5.00141L 33.3918 0.911646ZM 41.7349 0.911645L 43.6121 -3.17811L 43.6121 -3.17812L 41.7349 0.911645ZM 73.9611 15.7034L 75.8383 11.6137L 75.8383 11.6137L 73.9611 15.7034ZM 73.9796 19.3302L 75.8984 23.4006L 73.9796 19.3302ZM 41.8274 34.4868L 39.9086 30.4164L 39.9086 30.4164L 41.8274 34.4868ZM 33.2994 34.4868L 31.3806 38.5572L 31.3806 38.5572L 33.2994 34.4868ZM 3.066 15.2598C 4.9888 16.1662 4.97482 18.9064 3.04289 19.7932L -0.711505 11.6137C -5.73453 13.9192 -5.77087 21.0439 -0.771609 23.4006L 3.066 15.2598ZM 3.04289 19.7932L 35.269 5.00141L 31.5146 -3.17811L -0.711505 11.6137L 3.04289 19.7932ZM 35.269 5.00141C 36.7255 4.33286 38.4012 4.33287 39.8577 5.0014L 43.6121 -3.17812C 39.7722 -4.94063 35.3545 -4.94063 31.5146 -3.17811L 35.269 5.00141ZM 39.8577 5.0014L 72.0839 19.7932L 75.8383 11.6137L 43.6121 -3.17811L 39.8577 5.0014ZM 72.0839 19.7932C 70.1519 18.9064 70.138 16.1662 72.0608 15.2598L 75.8984 23.4006C 80.8976 21.0439 80.8613 13.9192 75.8383 11.6137L 72.0839 19.7932ZM 72.0608 15.2598L 39.9086 30.4164L 43.7462 38.5572L 75.8984 23.4006L 72.0608 15.2598ZM 39.9086 30.4164C 38.4235 31.1165 36.7033 31.1165 35.2182 30.4164L 31.3806 38.5572C 35.2958 40.4029 39.8309 40.4029 43.7462 38.5572L 39.9086 30.4164ZM 35.2182 30.4164L 3.066 15.2598L -0.771609 23.4006L 31.3806 38.5572L 35.2182 30.4164Z"/>
</defs>
</svg>
