<svg width="102" height="96" viewBox="0 0 102 96" version="1.1" xmlns="http://www.w3.org/2000/svg" xmlns:xlink="http://www.w3.org/1999/xlink">
<title>icon</title>
<desc>Created using Figma</desc>
<g id="Canvas" transform="translate(-8225 2251)">
<g id="icon">
<g id="Group 12.1">
<g id="Vector">
<use xlink:href="#path0_fill" transform="translate(8315 -2252)" fill="#9AE0E6"/>
</g>
<g id="Vector">
<use xlink:href="#path0_fill" transform="translate(8305 -2172)" fill="#9AE0E6"/>
</g>
<g id="Vector">
<use xlink:href="#path1_fill" transform="translate(8225 -2184)" fill="#9AE0E6"/>
</g>
<g id="Ellipse">
<use xlink:href="#path2_fill" transform="translate(8225 -2193)" fill="#9AE0E6"/>
</g>
<g id="Ellipse">
<use xlink:href="#path2_fill" transform="translate(8229 -2238)" fill="#9AE0E6"/>
</g>
<g id="Ellipse">
<use xlink:href="#path2_fill" transform="translate(8301 -2250)" fill="#9AE0E6"/>
</g>
<g id="Ellipse">
<use xlink:href="#path2_fill" transform="translate(8296 -2223)" fill="#9AE0E6"/>
</g>
<g id="Ellipse">
<use xlink:href="#path2_fill" transform="translate(8317 -2179)" fill="#9AE0E6"/>
</g>
</g>
<g id="Vector">
<use xlink:href="#path3_fill" transform="translate(8234 -2234)" fill="#E8F3FF"/>
<mask id="mask0_outline_ins">
<use xlink:href="#path3_fill" fill="white" transform="translate(8234 -2234)"/>
</mask>
<g mask="url(#mask0_outline_ins)">
<use xlink:href="#path4_stroke_2x" transform="translate(8234 -2234)" fill="#2D3666"/>
</g>
</g>
<g id="Vector 2">
<use xlink:href="#path5_fill" transform="translate(8236.95 -2232.06)" fill="#B8DAF2"/>
</g>
<g id="Vector">
<mask id="mask1_outline_ins">
<use xlink:href="#path3_fill" fill="white" transform="translate(8234 -2234)"/>
</mask>
<g mask="url(#mask1_outline_ins)">
<use xlink:href="#path4_stroke_2x" transform="translate(8234 -2234)" fill="#2D3666"/>
</g>
</g>
<g id="Vector">
<use xlink:href="#path6_stroke" transform="translate(8226 -2213)" fill="#2D3666"/>
</g>
</g>
</g>
<defs>
<path id="path0_fill" d="M 5.13176 1.51943L 3.95349 3.58139C 3.8649 3.73642 3.73642 3.8649 3.58139 3.95349L 1.51943 5.13176C 0.847611 5.51565 0.847611 6.48435 1.51943 6.86824L 3.58139 8.04651C 3.73642 8.1351 3.8649 8.26358 3.95349 8.41861L 5.13176 10.4806C 5.51565 11.1524 6.48435 11.1524 6.86824 10.4806L 8.04651 8.41861C 8.1351 8.26358 8.26358 8.1351 8.41861 8.04651L 10.4806 6.86824C 11.1524 6.48435 11.1524 5.51565 10.4806 5.13176L 8.41861 3.95349C 8.26358 3.8649 8.1351 3.73642 8.04651 3.58139L 6.86824 1.51943C 6.48435 0.847611 5.51565 0.847611 5.13176 1.51943Z"/>
<path id="path1_fill" d="M 5.13176 1.51943L 3.95349 3.58139C 3.8649 3.73642 3.73642 3.8649 3.58139 3.95349L 1.51943 5.13176C 0.847611 5.51565 0.84761 6.48435 1.51943 6.86824L 3.58139 8.04651C 3.73642 8.1351 3.8649 8.26358 3.95349 8.41861L 5.13176 10.4806C 5.51565 11.1524 6.48435 11.1524 6.86824 10.4806L 8.04651 8.41861C 8.1351 8.26358 8.26358 8.1351 8.41861 8.04651L 10.4806 6.86824C 11.1524 6.48435 11.1524 5.51565 10.4806 5.13176L 8.41861 3.95349C 8.26358 3.8649 8.1351 3.73642 8.04651 3.58139L 6.86824 1.51943C 6.48435 0.84761 5.51565 0.847611 5.13176 1.51943Z"/>
<path id="path2_fill" d="M 4.5 2.25C 4.5 3.49264 3.49264 4.5 2.25 4.5C 1.00736 4.5 0 3.49264 0 2.25C 0 1.00736 1.00736 0 2.25 0C 3.49264 0 4.5 1.00736 4.5 2.25Z"/>
<path id="path3_fill" d="M 7.17588 7.17588C -2.39196 16.7437 -2.39196 32.2563 7.17588 41.8241L 8.54652 43.592L 43.1947 78.2403L 77.843 43.592L 79.6105 41.8242C 89.1783 32.2563 89.1783 16.7438 79.6105 7.17592C 70.0426 -2.39192 54.5301 -2.39192 44.9622 7.17592L 43.5 8.63815L 41.8241 7.17588C 32.2563 -2.39196 16.7437 -2.39196 7.17588 7.17588Z"/>
<path id="path4_stroke_2x" d="M 7.17588 41.8241L 10.7323 39.0669L 10.5585 38.8427L 10.3579 38.6421L 7.17588 41.8241ZM 7.17588 7.17588L 10.3579 10.3579L 7.17588 7.17588ZM 41.8241 7.17588L 38.6421 10.3579L 38.7503 10.466L 38.8656 10.5666L 41.8241 7.17588ZM 77.843 43.592L 81.025 46.774L 81.0253 46.7736L 77.843 43.592ZM 43.1947 78.2403L 40.0128 81.4223L 43.1947 84.6042L 46.3767 81.4223L 43.1947 78.2403ZM 8.54652 43.592L 4.99012 46.3492L 5.16394 46.5734L 5.36453 46.774L 8.54652 43.592ZM 44.9622 7.17592L 41.7802 3.99394L 41.7802 3.99394L 44.9622 7.17592ZM 79.6105 7.17592L 76.4285 10.3579L 79.6105 7.17592ZM 79.6105 41.8242L 76.4285 38.6422L 76.4281 38.6425L 79.6105 41.8242ZM 43.5 8.63815L 40.5415 12.0289L 43.7092 14.7929L 46.682 11.8201L 43.5 8.63815ZM 10.3579 38.6421C 2.54738 30.8316 2.54738 18.1684 10.3579 10.3579L 3.9939 3.9939C -7.3313 15.3191 -7.3313 33.6809 3.9939 45.0061L 10.3579 38.6421ZM 10.3579 10.3579C 18.1684 2.54738 30.8316 2.54738 38.6421 10.3579L 45.0061 3.9939C 33.6809 -7.3313 15.3191 -7.3313 3.9939 3.9939L 10.3579 10.3579ZM 74.661 40.4101L 40.0128 75.0583L 46.3767 81.4223L 81.025 46.774L 74.661 40.4101ZM 46.3767 75.0583L 11.7285 40.4101L 5.36453 46.774L 40.0128 81.4223L 46.3767 75.0583ZM 48.1442 10.3579C 55.9547 2.54742 68.618 2.54742 76.4285 10.3579L 82.7924 3.99394C 71.4672 -7.33126 53.1054 -7.33126 41.7802 3.99394L 48.1442 10.3579ZM 76.4285 10.3579C 84.239 18.1684 84.239 30.8317 76.4285 38.6422L 82.7924 45.0061C 94.1176 33.6809 94.1176 15.3191 82.7924 3.99394L 76.4285 10.3579ZM 3.61949 44.5813L 4.99012 46.3492L 12.1029 40.8349L 10.7323 39.0669L 3.61949 44.5813ZM 81.0253 46.7736L 82.7928 45.0058L 76.4281 38.6425L 74.6606 40.4104L 81.0253 46.7736ZM 41.7802 3.99394L 40.318 5.45617L 46.682 11.8201L 48.1442 10.3579L 41.7802 3.99394ZM 46.4585 5.24741L 44.7826 3.78514L 38.8656 10.5666L 40.5415 12.0289L 46.4585 5.24741Z"/>
<path id="path5_fill" d="M 40.5496 70.0556C 32.5493 51.0556 -7.9502 10.0554 31.0498 3.55546C 31.0498 3.55546 29.5498 -4.4444 10.0496 3.55552C -2.12339 8.54945 -0.783766 25.0555 1.54957 33.0555C 1.54957 33.0555 48.5499 89.0556 40.5496 70.0556Z"/>
<path id="path6_stroke" d="M 22.9455 14L 22.9455 15.5L 23.6397 15.5L 24.089 14.9708L 22.9455 14ZM 34.8303 0L 35.9738 -0.970754L 34.8303 -2.31779L 33.6868 -0.970754L 34.8303 0ZM 46.7152 14L 45.5716 14.9708L 46.601 16.1833L 47.7512 15.0847L 46.7152 14ZM 54.0439 7L 55.0718 5.90762L 54.0362 4.93304L 53.0078 5.91529L 54.0439 7ZM 61.4825 14L 60.4545 15.0924L 60.8876 15.5L 61.4825 15.5L 61.4825 14ZM 0 15.5L 22.9455 15.5L 22.9455 12.5L 0 12.5L 0 15.5ZM 24.089 14.9708L 35.9738 0.970754L 33.6868 -0.970754L 21.8019 13.0292L 24.089 14.9708ZM 33.6868 0.970754L 45.5716 14.9708L 47.8587 13.0292L 35.9738 -0.970754L 33.6868 0.970754ZM 47.7512 15.0847L 55.0799 8.08471L 53.0078 5.91529L 45.6791 12.9153L 47.7512 15.0847ZM 61.4825 15.5L 101 15.5L 101 12.5L 61.4825 12.5L 61.4825 15.5ZM 53.0159 8.09237L 60.4545 15.0924L 62.5104 12.9076L 55.0718 5.90762L 53.0159 8.09237Z"/>
</defs>
</svg>
