<svg width="1600" height="5207" viewBox="0 0 1600 5207" version="1.1" xmlns="http://www.w3.org/2000/svg" xmlns:xlink="http://www.w3.org/1999/xlink">
<title>background</title>
<desc>Created using Figma</desc>
<g id="Canvas" transform="translate(-7048 3067)">
<g id="background">
<g id="landscape rectangle background">
<mask id="mask0_alpha" mask-type="alpha">
<g id="Rectangle">
<use xlink:href="#path0_fill" transform="matrix(0.707107 -0.707107 0.707107 0.707107 7591 -3027.71)" fill="#C4C4C4"/>
</g>
</mask>
<g id="illustration" mask="url(#mask0_alpha)">
<g id="Union">
<use xlink:href="#path1_fill" transform="translate(7044.5 -3234.47)" fill="url(#paint1_linear)"/>
</g>
<g id="Vector 2.1">
<use xlink:href="#path2_fill" transform="matrix(-0.965926 0.258819 0.258819 0.965926 8799.82 -3134.47)" fill="#FFFFFF"/>
</g>
<g id="Vector 2">
<use xlink:href="#path3_fill" transform="translate(8127.5 -3189.85)" fill="url(#paint3_linear)"/>
</g>
<g id="Vector 2">
<use xlink:href="#path4_fill" transform="matrix(0.987488 -0.157696 0.157696 0.987488 7937 -3002.05)" fill="#FFFFFF"/>
</g>
<g id="Vector">
<use xlink:href="#path5_fill" transform="translate(7853 -2994.47)" fill="url(#paint5_linear)"/>
</g>
<g id="Vector">
<use xlink:href="#path6_fill" transform="translate(8133 -2865.15)" fill="#FFFFFF"/>
</g>
<g id="Vector">
<use xlink:href="#path7_fill" transform="translate(8400 -2781.58)" fill="#B2D5FF"/>
</g>
<g id="Rectangle 9">
<use xlink:href="#path8_fill" transform="translate(7048 -2704.47)" fill="url(#paint8_linear)"/>
</g>
<g id="Vector 2">
<use xlink:href="#path9_fill" transform="translate(8393 -2642.47)" fill="#C4D9FF"/>
</g>
<g id="Vector">
<use xlink:href="#path10_fill" transform="translate(7039 -2492.47)" fill="#89B1FF" fill-opacity="0.5"/>
</g>
<g id="Vector 2.3">
<use xlink:href="#path11_fill" transform="translate(8271 -2402.47)" fill="url(#paint11_linear)"/>
</g>
<g id="Rectangle 10">
<use xlink:href="#path12_fill" transform="translate(7048 -2339.47)" fill="#C4D9FF"/>
</g>
</g>
</g>
<g id="illustration">
<g id="kite">
<g id="Group 8">
<g id="Vector 12">
<use xlink:href="#path13_stroke" transform="translate(7985.32 -2603)" fill="#5860B2" fill-opacity="0.5"/>
</g>
<g id="Blue Logo Redux">
<g id="Vector">
<use xlink:href="#path14_fill" transform="matrix(0.868778 0.495202 -0.504813 0.863229 8272.68 -2815.82)" fill="#6986FF"/>
<use xlink:href="#path15_fill" transform="matrix(0.868778 0.495202 -0.504813 0.863229 8272.68 -2815.82)" fill="#6986FF"/>
</g>
<g id="Vector">
<use xlink:href="#path16_fill" transform="matrix(0.868778 0.495202 -0.504813 0.863229 8336.92 -2778.75)" fill="#034EFF"/>
<use xlink:href="#path17_fill" transform="matrix(0.868778 0.495202 -0.504813 0.863229 8336.92 -2778.75)" fill="#034EFF"/>
</g>
<g id="Vector">
<use xlink:href="#path18_fill" transform="matrix(1 -7.67285e-09 7.87205e-09 1 8336.92 -2845.1)" fill="#72B3FF"/>
<use xlink:href="#path19_fill" transform="matrix(1 -7.67285e-09 7.87205e-09 1 8336.92 -2845.1)" fill="#72B3FF"/>
</g>
<g id="Vector">
<use xlink:href="#path20_fill" transform="matrix(0.868778 0.495202 -0.504813 0.863229 8346.72 -2777.61)" fill="#5C7DFF"/>
<use xlink:href="#path21_fill" transform="matrix(0.868778 0.495202 -0.504813 0.863229 8346.72 -2777.61)" fill="#5C7DFF"/>
</g>
<g id="Vector">
<use xlink:href="#path22_fill" transform="matrix(0.868778 0.495202 -0.504813 0.863229 8349.72 -2782.74)" fill="#EDF5FF"/>
<use xlink:href="#path23_fill" transform="matrix(0.868778 0.495202 -0.504813 0.863229 8349.72 -2782.74)" fill="#EDF5FF"/>
</g>
<g id="Vector">
<use xlink:href="#path24_fill" transform="matrix(1 -7.67285e-09 7.87205e-09 1 8265.83 -2845.1)" fill="#6E99FF"/>
<use xlink:href="#path25_fill" transform="matrix(1 -7.67285e-09 7.87205e-09 1 8265.83 -2845.1)" fill="#6E99FF"/>
</g>
<g id="Rectangle">
<use xlink:href="#path26_fill" transform="matrix(0.62803 0.778189 -0.801506 0.597987 8379.1 -2748.14)" fill="#DAE7F7"/>
</g>
<g id="Rectangle">
<use xlink:href="#path27_fill" transform="matrix(0.62803 0.778189 -0.801506 0.597987 8373.58 -2733.36)" fill="#DAE7F7"/>
</g>
<g id="Rectangle">
<use xlink:href="#path28_fill" transform="matrix(0.62803 0.778189 -0.801506 0.597987 8366.74 -2719.35)" fill="#DAE7F7"/>
</g>
<g id="Rectangle">
<use xlink:href="#path29_fill" transform="matrix(0.62803 0.778189 -0.801506 0.597987 8363.12 -2702.21)" fill="#DAE7F7"/>
</g>
</g>
</g>
<g id="Vector 3">
<use xlink:href="#path30_fill" transform="matrix(0.531168 0.847267 0.844893 -0.534935 8186.98 -2577.72)" fill="#454545"/>
</g>
<g id="Vector 3.1">
<use xlink:href="#path31_fill" transform="matrix(0.576145 0.817347 -0.814774 0.579779 8054.41 -2499.72)" fill="#4D5CFF"/>
</g>
<g id="Vector 3.2">
<use xlink:href="#path32_fill" transform="matrix(0.994129 0.1082 -0.103772 0.994601 7977.03 -2362.19)" fill="#454545"/>
</g>
<g id="Vector 3.6">
<use xlink:href="#path33_fill" transform="matrix(0.650588 0.759431 -0.756526 0.653963 8300.9 -2305)" fill="#454545"/>
</g>
<g id="Vector 3.7">
<use xlink:href="#path34_fill" transform="matrix(-0.573278 -0.819361 0.816801 -0.57692 8406.23 -2379.22)" fill="#4D5CFF"/>
</g>
<g id="Vector 3.4">
<use xlink:href="#path35_fill" transform="matrix(0.27762 -0.960691 0.961918 0.273339 8095.49 -2208.42)" fill="#4D5CFF"/>
</g>
</g>
<g id="stars">
<g id="Vector">
<use xlink:href="#path36_fill" transform="translate(8195.83 -2655)" fill="#4D5CFF"/>
</g>
<g id="Vector">
<use xlink:href="#path36_fill" transform="translate(8168.83 -2797)" fill="#4D5CFF"/>
</g>
<g id="Vector">
<use xlink:href="#path36_fill" transform="translate(8377.83 -2648)" fill="#4D5CFF"/>
</g>
<g id="Vector">
<use xlink:href="#path37_fill" transform="translate(8412.83 -2867)" fill="#4D5CFF"/>
</g>
<g id="Ellipse">
<use xlink:href="#path38_fill" transform="translate(8455.83 -2748)" fill="#4D5CFF"/>
</g>
<g id="Ellipse">
<use xlink:href="#path38_fill" transform="translate(8211.83 -2722)" fill="#4D5CFF"/>
</g>
<g id="Ellipse">
<use xlink:href="#path38_fill" transform="translate(8374.83 -2872)" fill="#4D5CFF"/>
</g>
</g>
</g>
<g id="big rectangles">
<g id="Rectangle">
<use xlink:href="#path39_fill" transform="matrix(0.707107 -0.707107 0.707107 0.707107 7981 -496.777)" fill="url(#paint43_linear)"/>
</g>
<g id="Rectangle">
<use xlink:href="#path40_fill" transform="matrix(0.707107 -0.707107 0.707107 0.707107 5804 486.223)" fill="url(#paint44_linear)"/>
</g>
<g id="Rectangle">
<use xlink:href="#path41_fill" transform="matrix(0.707107 -0.707107 0.707107 0.707107 5983.73 -1655.96)" fill="url(#paint45_linear)"/>
</g>
</g>
<g id="small rectangles">
<g id="Rectangle 11.2">
<use xlink:href="#path42_fill" transform="matrix(0.705704 0.708507 -0.705704 0.708507 8554.2 -1773)" fill="#E0EBFF"/>
</g>
<g id="Rectangle 11.6">
<use xlink:href="#path43_fill" transform="matrix(0.705704 0.708507 -0.705704 0.708507 7104.86 -903)" fill="#E0EBFF"/>
</g>
<g id="Rectangle 11.3">
<use xlink:href="#path44_fill" transform="matrix(0.705704 0.708507 -0.705704 0.708507 7028.91 -1960)" fill="#E0EBFF"/>
</g>
<g id="Rectangle 11.9">
<use xlink:href="#path45_fill" transform="matrix(0.705704 0.708507 -0.705704 0.708507 8648.3 -956)" fill="#C0D6FF"/>
</g>
<g id="Rectangle 11.10">
<use xlink:href="#path46_fill" transform="matrix(0.705704 0.708507 -0.705704 0.708507 8554.05 -731)" fill="#CCDEFF"/>
</g>
<g id="Rectangle 11.11">
<use xlink:href="#path47_fill" transform="matrix(-0.705704 0.708507 0.705704 0.708507 7848.22 1462.53)" fill="#E0EBFF"/>
</g>
<g id="Rectangle 11.18">
<mask id="mask1_outline_ins">
<use xlink:href="#path48_fill" fill="white" transform="matrix(-0.705704 0.708507 0.705704 0.708507 8565.6 278.007)"/>
</mask>
<g mask="url(#mask1_outline_ins)">
<use xlink:href="#path49_stroke_2x" transform="matrix(-0.705704 0.708507 0.705704 0.708507 8565.6 278.007)" fill="#C4D9FF"/>
</g>
</g>
<g id="Rectangle 11.19">
<mask id="mask2_outline_ins">
<use xlink:href="#path50_fill" fill="white" transform="matrix(-0.705704 0.708507 0.705704 0.708507 8565.6 222)"/>
</mask>
<g mask="url(#mask2_outline_ins)">
<use xlink:href="#path51_stroke_2x" transform="matrix(-0.705704 0.708507 0.705704 0.708507 8565.6 222)" fill="#C4D9FF"/>
</g>
</g>
<g id="Rectangle 11.16">
<use xlink:href="#path47_fill" transform="matrix(-0.705704 0.708507 0.705704 0.708507 8590.2 1273)" fill="#E0EBFF"/>
</g>
<g id="Rectangle 11.17">
<use xlink:href="#path52_fill" transform="matrix(-0.705704 0.708507 0.705704 0.708507 8683.27 1004.21)" fill="#D1E2FF"/>
</g>
<g id="Rectangle 11.18">
<mask id="mask3_outline_ins">
<use xlink:href="#path53_fill" fill="white" transform="matrix(-0.705704 0.708507 0.705704 0.708507 8571.89 1189)"/>
</mask>
<g mask="url(#mask3_outline_ins)">
<use xlink:href="#path54_stroke_2x" transform="matrix(-0.705704 0.708507 0.705704 0.708507 8571.89 1189)" fill="#E0EBFF"/>
</g>
</g>
<g id="Rectangle 11.11">
<use xlink:href="#path47_fill" transform="matrix(-0.705704 0.708507 0.705704 0.708507 7848.2 224)" fill="#E0EBFF"/>
</g>
<g id="Rectangle 11.20">
<use xlink:href="#path55_fill" transform="matrix(0.705704 0.708507 -0.705704 0.708507 7026.65 -2680)" fill="#E0EBFF"/>
</g>
<g id="Rectangle 11.5">
<use xlink:href="#path56_fill" transform="matrix(0.705704 0.708507 -0.705704 0.708507 7090.33 -2145)" fill="#F3F6FD"/>
</g>
</g>
<g id="sheet of paper 6">
<g id="Vector 4">
<use xlink:href="#path57_fill" transform="matrix(0.968195 0.250197 -0.252244 0.967664 8404.98 273.301)" fill="#515FA9"/>
</g>
<g id="Vector 4.1">
<use xlink:href="#path58_fill" transform="matrix(0.969809 0.243922 -0.245765 0.969315 8404.73 273.505)" fill="#D5E4FF"/>
</g>
</g>
<g id="sheet of paper 5">
<g id="Vector 4">
<use xlink:href="#path59_fill" transform="matrix(0.917928 -0.396747 0.396747 0.917928 8235 -877.807)" fill="#515FA9"/>
</g>
<g id="Vector 4.1">
<use xlink:href="#path60_fill" transform="matrix(0.917928 -0.396747 0.396747 0.917928 8235 -877.807)" fill="#D5E4FF"/>
</g>
</g>
<g id="sheet of paper 4">
<g id="Vector">
<use xlink:href="#path61_fill" transform="matrix(-0.866025 -0.5 0.503336 -0.864091 7670.85 -676.161)" fill="#515FA9"/>
</g>
<g id="Vector">
<use xlink:href="#path62_fill" transform="matrix(-0.866025 -0.5 0.503336 -0.864091 7670.85 -676.161)" fill="#D5E4FF"/>
</g>
</g>
<g id="sheet of paper 3">
<g id="Vector">
<use xlink:href="#path63_fill" transform="matrix(0.733533 0.679654 -0.682478 0.730906 7236.53 472)" fill="#515FA9"/>
</g>
<g id="Vector">
<use xlink:href="#path64_fill" transform="matrix(0.733533 0.679654 -0.682478 0.730906 7236.53 472)" fill="#D5E4FF"/>
</g>
</g>
<g id="sheet of paper 2">
<g id="Vector 4">
<use xlink:href="#path65_fill" transform="matrix(0.999346 -0.036171 0.036171 0.999346 7401 -1775.36)" fill="#515FA9"/>
</g>
<g id="Vector 4.1">
<use xlink:href="#path66_fill" transform="matrix(0.999346 -0.036171 0.036171 0.999346 7401 -1775.36)" fill="#D5E4FF"/>
</g>
</g>
<g id="sheet of paper 1">
<g id="Vector 5">
<use xlink:href="#path67_fill" transform="matrix(0.999346 -0.036171 0.036171 0.999346 8504 -1937.73)" fill="#515FA9"/>
</g>
<g id="Vector 4">
<use xlink:href="#path68_fill" transform="matrix(0.999346 -0.036171 0.036171 0.999346 8517.38 -1921.78)" fill="#D5E4FF"/>
</g>
</g>
<g id="sheets of papers and footer background">
<g id="footer background">
<g id="Ellipse">
<use xlink:href="#path69_fill" transform="translate(7048 1597.92)" fill="url(#paint72_linear)"/>
</g>
<g id="Vector">
<use xlink:href="#path70_fill" transform="translate(7048 1949.82)" fill="#465081"/>
</g>
<g id="Vector">
<use xlink:href="#path71_fill" transform="translate(7772.31 1766.86)" fill="#8293E1"/>
</g>
</g>
<g id="floating sheet of papers">
<g id="paper2">
<g id="Vector 4">
<use xlink:href="#path72_fill" transform="matrix(0.957055 0.289906 -0.282267 0.959336 7075.66 1514.93)" fill="#515FA9"/>
</g>
<g id="Vector 4.1">
<use xlink:href="#path73_fill" transform="matrix(0.958895 0.283576 -0.275971 0.961221 7075.23 1515.25)" fill="#D5E4FF"/>
</g>
</g>
<g id="paper3">
<g id="Vector 5">
<use xlink:href="#path74_fill" transform="translate(8412.14 1585.39)" fill="#515FA9"/>
</g>
<g id="Vector 4">
<use xlink:href="#path75_fill" transform="translate(8434.15 1614.21)" fill="#D5E4FF"/>
</g>
</g>
<g id="paper4">
<g id="Vector 4">
<use xlink:href="#path76_fill" transform="translate(8443.54 1953.25)" fill="#515FA9"/>
</g>
<g id="Vector 4.1">
<use xlink:href="#path77_fill" transform="translate(8443.54 1953.25)" fill="#D5E4FF"/>
</g>
</g>
<g id="paper1">
<g id="Vector">
<use xlink:href="#path78_fill" transform="matrix(0.701947 0.712229 -0.701947 0.712229 7506.76 1948.42)" fill="#515FA9"/>
</g>
<g id="Vector">
<use xlink:href="#path79_fill" transform="matrix(0.701947 0.712229 -0.701947 0.712229 7506.76 1948.42)" fill="#D5E4FF"/>
</g>
</g>
</g>
</g>
<g id="lines betweens sections">
<g id="Line">
<use xlink:href="#path80_stroke" transform="matrix(6.12323e-17 1 -1 6.12323e-17 7848 -991)" fill="#B8C0ED"/>
</g>
<g id="Line">
<use xlink:href="#path80_stroke" transform="matrix(6.12323e-17 1 -1 6.12323e-17 7849 -1790)" fill="#B8C0ED"/>
</g>
<g id="Line">
<use xlink:href="#path80_stroke" transform="matrix(6.12323e-17 1 -1 6.12323e-17 7848 330)" fill="#B8C0ED"/>
</g>
<g id="Line">
<use xlink:href="#path80_stroke" transform="matrix(6.12323e-17 1 -1 6.12323e-17 7848 1289.53)" fill="#B8C0ED"/>
</g>
</g>
</g>
</g>
<defs>
<linearGradient id="paint1_linear" x1="0" y1="0" x2="1" y2="0" gradientUnits="userSpaceOnUse" gradientTransform="matrix(-1747.5 -735 1241.73 -2952.27 943.636 2007.64)">
<stop offset="0" stop-color="#FFFFFF"/>
<stop offset="1" stop-color="#E7ECFB"/>
<stop offset="1" stop-color="#E7EEFB"/>
</linearGradient>
<linearGradient id="paint3_linear" x1="0" y1="0" x2="1" y2="0" gradientUnits="userSpaceOnUse" gradientTransform="matrix(-7.99995 240.5 -487.277 -16.2087 882.138 207.481)">
<stop offset="0" stop-color="#7AB6FF"/>
<stop offset="1" stop-color="#EAF3FF"/>
</linearGradient>
<linearGradient id="paint5_linear" x1="0" y1="0" x2="1" y2="0" gradientUnits="userSpaceOnUse" gradientTransform="matrix(-17 -265 538.833 -34.5667 -2.41666 296.783)">
<stop offset="0" stop-color="#C2DAFF"/>
<stop offset="1" stop-color="#5B9BFF"/>
</linearGradient>
<linearGradient id="paint8_linear" x1="0" y1="0" x2="1" y2="0" gradientUnits="userSpaceOnUse" gradientTransform="matrix(-8.5 204.5 -730.357 -30.3571 1165.18 15.1786)">
<stop offset="0" stop-color="#D7E4FF"/>
<stop offset="1" stop-color="#FFFFFF"/>
</linearGradient>
<linearGradient id="paint11_linear" x1="0" y1="0" x2="1" y2="0" gradientUnits="userSpaceOnUse" gradientTransform="matrix(1.49407e-14 63 -244 3.85764e-15 244 -3.85764e-15)">
<stop offset="0" stop-color="#FFFFFF"/>
<stop offset="1" stop-color="#FFFFFF" stop-opacity="0.96"/>
</linearGradient>
<linearGradient id="paint43_linear" x1="0" y1="0" x2="1" y2="0" gradientUnits="userSpaceOnUse" gradientTransform="matrix(-853.362 724.784 -609.41 -530.801 1103.17 979.038)">
<stop offset="0" stop-color="#C4D9FF"/>
<stop offset="1" stop-color="#AFCBFF" stop-opacity="0"/>
<stop offset="1" stop-color="#AFCBFF" stop-opacity="0"/>
</linearGradient>
<linearGradient id="paint44_linear" x1="0" y1="0" x2="1" y2="0" gradientUnits="userSpaceOnUse" gradientTransform="matrix(-765.755 756.165 -546.847 -553.783 989.916 1021.43)">
<stop offset="0" stop-color="#C4D9FF"/>
<stop offset="1" stop-color="#AFCBFF" stop-opacity="0"/>
<stop offset="1" stop-color="#AFCBFF" stop-opacity="0"/>
</linearGradient>
<linearGradient id="paint45_linear" x1="0" y1="0" x2="1" y2="0" gradientUnits="userSpaceOnUse" gradientTransform="matrix(-833.03 724.784 -594.89 -530.801 1076.88 979.038)">
<stop offset="0" stop-color="#C4D9FF"/>
<stop offset="1" stop-color="#AFCBFF" stop-opacity="0"/>
<stop offset="1" stop-color="#AFCBFF" stop-opacity="0"/>
</linearGradient>
<linearGradient id="paint72_linear" x1="0" y1="0" x2="1" y2="0" gradientUnits="userSpaceOnUse" gradientTransform="matrix(9.79718e-14 522.325 -1600 3.19832e-14 1600 4.81144e-13)">
<stop offset="0" stop-color="#EBF2FF"/>
<stop offset="1" stop-color="#E0EBFF"/>
</linearGradient>
<path id="path0_fill" d="M 0 200C 0 89.5431 89.5431 0 200 0L 1161.55 0C 1272.01 0 1361.55 89.5431 1361.55 200L 1361.55 1880.4C 1361.55 1990.86 1272.01 2080.4 1161.55 2080.4L 200 2080.4C 89.5431 2080.4 0 1990.86 0 1880.4L 0 200Z"/>
<path id="path1_fill" fill-rule="evenodd" d="M 1603.5 0L 3.5 0L 3.5 873.016L 0 873L 0 894.499C 76.9653 980.093 148.61 947.521 203.094 922.75C 227.541 911.636 248.533 902.092 265 905.499C 368.398 926.892 396.17 920.914 425.555 914.589C 453.86 908.496 483.662 902.081 584 919.499C 673.666 935.065 723.92 918.333 772.948 902.008C 780.092 899.63 787.209 897.26 794.419 895L 988.017 895C 1002.78 899.052 1018.56 904.011 1035.5 910C 1159.77 953.933 1255.02 932.926 1341.42 913.868C 1430.8 894.156 1510.71 876.531 1603.5 935L 1605 880.5L 1603.5 880.493L 1603.5 0Z"/>
<path id="path2_fill" d="M 79.7228 57.6117C -48.7427 19.0852 3.22277 130.612 61.2228 150.612L 332.723 150.612C 395.123 136.212 389.208 89.0235 305.223 75.6116C 315.196 -37.2552 219.967 29.5637 192.204 57.5631C 170.234 -55.3413 99.3896 27.445 79.7228 57.6117Z"/>
<path id="path3_fill" d="M 410 214.377C 291.5 51.3768 189 206.877 0 352.877L 0 547.877C 386 576.877 1165.9 622.677 1197.5 573.877C 1237 512.877 1130.5 467.377 1098.5 299.877C 1066.5 132.377 976.5 311.877 777 22.3768C 687.509 -107.487 528.5 377.377 410 214.377Z"/>
<path id="path4_fill" d="M 51.0133 45.5032C 2.51328 10.5032 -25.4867 118.503 32.5133 138.503L 304.014 138.503C 366.414 124.103 311.68 82.5032 276.514 63.5032C 303.314 3.50312 209.347 15.1699 159.014 28.5032C 119.814 -30.2968 70.6801 15.3366 51.0133 45.5032Z"/>
<path id="path5_fill" d="M 0 299.546C 195.249 177.731 137.779 0.000110757 344.461 0C 507.551 -8.73973e-05 414.776 286.576 584.835 299.546L 610 299.546C 601.023 300.16 592.651 300.142 584.835 299.546L 0 299.546Z"/>
<path id="path6_fill" d="M 0 170.414C 195.249 98.949 -56.6041 -94.5331 354 55.6804C 460.073 94.4857 416.806 163.371 557.504 170.414L 610 170.414C 590.071 171.214 572.713 171.175 557.504 170.414L 0 170.414Z"/>
<path id="path7_fill" d="M 0 86.8452C 195.249 15.3802 12.5 -21.8887 346 13.6113C 627.195 43.5435 693.406 86.6736 823.403 96.0736L 916 97.1114C 880.633 98.5311 850.62 98.0416 823.403 96.0736L 0 86.8452Z"/>
<path id="path8_fill" d="M 0 0L 1600 0L 1600 448L 0 448L 0 0Z"/>
<path id="path9_fill" d="M 498 96L 0 96C 93.2438 -108.96 224.865 86.1025 294.123 34.5532C 349.529 -6.68631 453.127 58.3346 498 96Z"/>
<path id="path10_fill" d="M 487.413 123.639C 365.435 8.03665 171.969 8.03665 0 123.639L 0 219.839L 1633.21 219.839C 1684.37 245.439 1755.99 264.787 1633.21 79.1765C 1479.74 -152.836 1345.26 214.989 1089.31 54.9243C 833.351 -105.14 609.391 239.241 487.413 123.639Z"/>
<path id="path11_fill" d="M 129.613 22.1582C 61.596 -35.095 39.0029 33.6088 0 60.1535L 242.579 60.1535C 245.512 66.0523 245.861 66.7116 223.791 22.1582C 196.204 -33.5336 197.631 79.4114 129.613 22.1582Z"/>
<path id="path12_fill" d="M 0 0L 1600 0L 1600 740L 0 740L 0 0Z"/>
<path id="path13_stroke" d="M 21.0168 320.501L 19.6835 321.188L 21.0168 320.501ZM 342.017 288.501L 343.226 289.389L 342.017 288.501ZM 259.53 0.202678C 259.552 0.364358 259.519 0.732565 259.056 1.38913C 258.563 2.09767 257.816 2.82518 256.683 3.72169C 254.371 5.55943 250.908 7.64949 246.377 10.0742C 237.287 14.9407 224.236 20.9391 208.784 28.2035C 177.883 42.7306 137.442 62.297 100.332 87.8016C 63.2243 113.31 29.2745 144.876 11.4959 183.494C -6.32451 222.202 -7.82006 267.831 19.6835 321.188L 22.35 319.813C -4.75988 267.22 -3.18723 222.561 14.221 184.748C 31.671 146.844 65.1102 115.654 102.031 90.2739C 138.949 64.8909 179.175 45.4384 210.06 30.9185C 225.5 23.6595 238.622 17.6273 247.793 12.7192C 252.392 10.2566 256.083 8.0233 258.547 6.07202C 259.802 5.07402 260.849 4.0406 261.507 3.11809C 262.195 2.14361 262.668 1.01064 262.502 -0.202678L 259.53 0.202678ZM 19.6835 321.188C 45.0282 370.357 101.553 395.726 163.773 392.179C 226.033 388.631 294.192 356.152 343.226 289.389L 340.808 287.613C 292.297 353.665 224.956 385.687 163.602 389.184C 102.208 392.684 47.0053 367.645 22.35 319.813L 19.6835 321.188ZM 343.226 289.389C 387.309 229.366 436.61 197.561 484.724 187.194C 532.836 176.826 579.931 187.857 619.697 213.819C 699.265 265.769 749.41 377.48 719.063 496.63L 721.97 497.371C 752.623 377.021 702.018 263.983 621.337 211.307C 580.978 184.957 533.073 173.706 484.092 184.261C 435.112 194.815 385.225 227.135 340.808 287.613L 343.226 289.389Z"/>
<path id="path14_fill" fill-rule="evenodd" d="M 75.183 0L 31.1314 85.567L 83.2037 209.598L 75.183 0Z"/>
<path id="path15_fill" d="M 75.183 0L 0 13.5402L 31.1314 85.567L 75.183 0Z"/>
<path id="path16_fill" fill-rule="evenodd" d="M 69.6589 87.3116L 9.01755 209.146L 0 0L 69.6589 87.3116Z"/>
<path id="path17_fill" d="M 106.049 15.1043L 0 0L 69.6589 87.3116L 106.049 15.1043Z"/>
<path id="path18_fill" fill-rule="evenodd" d="M 0 66.4537L 67.1862 66.0311L 49.2652 0L 0 66.4537Z"/>
<path id="path19_fill" d="M 0 66.4537L 85.1074 132.062C 78.1087 106.275 74.1849 91.8179 67.1862 66.0311L 0 66.4537Z"/>
<path id="path20_fill" fill-rule="evenodd" d="M 61.2536 91.1669L 0 213.069L 8.28383 2.27284e-06L 61.2536 91.1669Z"/>
<path id="path21_fill" d="M 97.6129 18.8075L 8.28383 2.27284e-06L 61.2536 91.1669L 97.6129 18.8075Z"/>
<path id="path22_fill" fill-rule="evenodd" d="M 61.2536 97.1105L 0 219.013L 35.7196 0L 61.2536 97.1105Z"/>
<path id="path23_fill" d="M 97.6129 24.751L 35.7196 0L 61.2536 97.1105L 97.6129 24.751Z"/>
<path id="path24_fill" fill-rule="evenodd" d="M 71.0414 66.5233L 59.5311 21.1097L -3.22527e-07 40.9712L 71.0414 66.5233Z"/>
<path id="path25_fill" d="M 71.0414 66.5233L 120.356 0L 59.5311 21.1097L 71.0414 66.5233Z"/>
<path id="path26_fill" d="M 0 2.72534C 0 1.22146 1.22146 0.00355071 2.72533 0.00792241L 42.8251 0.124491C 44.3228 0.128844 45.5347 1.3442 45.5347 2.84191C 45.5347 4.3458 44.3132 5.56371 42.8093 5.55933L 2.70953 5.44277C 1.21183 5.43841 0 4.22306 0 2.72534Z"/>
<path id="path27_fill" d="M 0 2.75086C 0 1.23711 1.23701 0.0152129 2.75065 0.0338279L 33.3975 0.410727C 34.885 0.429021 36.0813 1.6401 36.0813 3.12776C 36.0813 4.64152 34.8443 5.86341 33.3306 5.84479L 2.68383 5.4679C 1.19628 5.4496 0 4.23852 0 2.75086Z"/>
<path id="path28_fill" d="M 0 2.71744C 0 1.21664 1.21664 0 2.71744 0L 25.5283 0C 27.0291 0 28.2458 1.21664 28.2458 2.71744C 28.2458 4.21825 27.0291 5.43489 25.5283 5.43489L 2.71744 5.43489C 1.21664 5.43489 0 4.21825 0 2.71744Z"/>
<path id="path29_fill" d="M 0 2.71744C 0 1.21664 1.21664 0 2.71744 0L 13.0413 0C 14.5421 0 15.7587 1.21664 15.7587 2.71744C 15.7587 4.21825 14.5421 5.43489 13.0413 5.43489L 2.71744 5.43489C 1.21664 5.43489 0 4.21825 0 2.71744Z"/>
<path id="path30_fill" d="M 7.53241 3.27949L 0 0L 0 12.5611L 7.53241 8.84843L 14.4917 12.5611L 14.4917 0L 7.53241 3.27949Z"/>
<path id="path31_fill" d="M 7.81393 3.40206L 0 0L 0 13.0305L 7.81393 9.17913L 15.0333 13.0305L 15.0333 0L 7.81393 3.40206Z"/>
<path id="path32_fill" d="M 8.49425 3.69826L 0 0L 0 14.165L 8.49425 9.97832L 16.3422 14.165L 16.3422 0L 8.49425 3.69826Z"/>
<path id="path33_fill" d="M 16.7011 7.27137L 0 0L 0 27.8507L 16.7011 19.619L 32.1314 27.8507L 32.1314 0L 16.7011 7.27137Z"/>
<path id="path34_fill" d="M 9.12464 3.97271L 0 0L 0 15.2162L 9.12464 10.7188L 17.555 15.2162L 17.555 0L 9.12464 3.97271Z"/>
<path id="path35_fill" d="M 7.67032 3.33953L 0 0L 0 12.791L 7.67032 9.01043L 14.757 12.791L 14.757 0L 7.67032 3.33953Z"/>
<path id="path36_fill" d="M 6.13176 1.51943L 4.58986 4.21775C 4.50127 4.37278 4.37278 4.50127 4.21775 4.58986L 1.51943 6.13176C 0.847611 6.51565 0.847611 7.48435 1.51943 7.86824L 4.21775 9.41014C 4.37278 9.49873 4.50127 9.62722 4.58986 9.78225L 6.13176 12.4806C 6.51565 13.1524 7.48435 13.1524 7.86824 12.4806L 9.41014 9.78225C 9.49873 9.62722 9.62722 9.49873 9.78225 9.41014L 12.4806 7.86824C 13.1524 7.48435 13.1524 6.51565 12.4806 6.13176L 9.78225 4.58986C 9.62722 4.50127 9.49873 4.37278 9.41014 4.21775L 7.86824 1.51943C 7.48435 0.847611 6.51565 0.847611 6.13176 1.51943Z"/>
<path id="path37_fill" d="M 6.13176 1.51943L 4.58986 4.21775C 4.50127 4.37278 4.37278 4.50127 4.21775 4.58986L 1.51943 6.13176C 0.847611 6.51565 0.847611 7.48435 1.51943 7.86824L 4.21775 9.41014C 4.37278 9.49873 4.50127 9.62722 4.58986 9.78225L 6.13176 12.4806C 6.51565 13.1524 7.48435 13.1524 7.86824 12.4806L 9.41014 9.78225C 9.49873 9.62722 9.62722 9.49873 9.78225 9.41014L 12.4806 7.86824C 13.1524 7.48435 13.1524 6.51565 12.4806 6.13176L 9.78225 4.58986C 9.62722 4.50127 9.49873 4.37278 9.41014 4.21775L 7.86824 1.51943C 7.48435 0.847611 6.51565 0.847611 6.13176 1.51943Z"/>
<path id="path38_fill" d="M 5 2.5C 5 3.88071 3.88071 5 2.5 5C 1.11929 5 0 3.88071 0 2.5C 0 1.11929 1.11929 0 2.5 0C 3.88071 0 5 1.11929 5 2.5Z"/>
<path id="path39_fill" d="M 0 125.435C 0 56.1593 72.1497 0 161.151 0L 935.927 0C 1024.93 0 1097.08 56.1592 1097.08 125.435L 1097.08 1179.34C 1097.08 1248.62 1024.93 1304.78 935.927 1304.78L 161.151 1304.78C 72.1497 1304.78 0 1248.62 0 1179.34L 0 125.435Z"/>
<path id="path40_fill" d="M 0 130.866C 0 58.5907 64.7427 0 144.607 0L 839.844 0C 919.708 0 984.451 58.5907 984.451 130.866L 984.451 1230.4C 984.451 1302.68 919.708 1361.27 839.844 1361.27L 144.607 1361.27C 64.7428 1361.27 0 1302.68 0 1230.4L 0 130.866Z"/>
<path id="path41_fill" d="M 0 125.435C 0 56.1593 70.4307 0 157.311 0L 913.628 0C 1000.51 0 1070.94 56.1592 1070.94 125.435L 1070.94 1179.34C 1070.94 1248.62 1000.51 1304.78 913.628 1304.78L 157.311 1304.78C 70.4307 1304.78 0 1248.62 0 1179.34L 0 125.435Z"/>
<path id="path42_fill" d="M 0 5.99821C 0 2.68549 2.68549 0 5.99821 0L 19.7941 0C 23.1068 0 25.7923 2.68549 25.7923 5.99821L 25.7923 19.7941C 25.7923 23.1068 23.1068 25.7923 19.7941 25.7923L 5.99821 25.7923C 2.68549 25.7923 0 23.1068 0 19.7941L 0 5.99821Z"/>
<path id="path43_fill" d="M 0 11.158C 0 4.99562 4.99562 0 11.158 0L 36.8215 0C 42.9839 0 47.9796 4.99562 47.9796 11.158L 47.9796 36.8215C 47.9796 42.9839 42.9839 47.9796 36.8215 47.9796L 11.158 47.9796C 4.99562 47.9796 0 42.9839 0 36.8215L 0 11.158Z"/>
<path id="path44_fill" d="M 0 23.0395C 0 10.3151 11.7322 0 26.2046 0L 86.475 0C 100.947 0 112.68 10.3151 112.68 23.0395L 112.68 76.0302C 112.68 88.7546 100.947 99.0697 86.475 99.0697L 26.2046 99.0697C 11.7322 99.0697 0 88.7546 0 76.0302L 0 23.0395Z"/>
<path id="path45_fill" d="M 0 48.54C 0 21.7321 21.7321 0 48.54 0L 160.182 0C 186.99 0 208.722 21.7321 208.722 48.54L 208.722 160.182C 208.722 186.99 186.99 208.722 160.182 208.722L 48.54 208.722C 21.7321 208.722 0 186.99 0 160.182L 0 48.54Z"/>
<path id="path46_fill" d="M 0 23.4137C 0 10.4827 10.4827 0 23.4137 0L 77.2651 0C 90.1962 0 100.679 10.4827 100.679 23.4137L 100.679 77.2651C 100.679 90.1962 90.1962 100.679 77.2651 100.679L 23.4137 100.679C 10.4827 100.679 0 90.1962 0 77.2651L 0 23.4137Z"/>
<path id="path47_fill" d="M 0 5.99821C 0 2.68549 2.68549 0 5.99821 0L 19.7941 0C 23.1068 0 25.7923 2.68549 25.7923 5.99821L 25.7923 19.7941C 25.7923 23.1068 23.1068 25.7923 19.7941 25.7923L 5.99821 25.7923C 2.68549 25.7923 0 23.1068 0 19.7941L 0 5.99821Z"/>
<path id="path48_fill" d="M 0 6.23044C 0 2.78946 2.78946 0 6.23043 0L 51.3042 0C 54.7451 0 57.5346 2.78946 57.5346 6.23043L 57.5346 51.3042C 57.5346 54.7451 54.7451 57.5346 51.3042 57.5346L 6.23044 57.5346C 2.78946 57.5346 0 54.7451 0 51.3042L 0 6.23044Z"/>
<path id="path49_stroke_2x" d="M 6.23043 4.5L 51.3042 4.5L 51.3042 -4.5L 6.23043 -4.5L 6.23043 4.5ZM 53.0346 6.23043L 53.0346 51.3042L 62.0346 51.3042L 62.0346 6.23043L 53.0346 6.23043ZM 51.3042 53.0346L 6.23044 53.0346L 6.23044 62.0346L 51.3042 62.0346L 51.3042 53.0346ZM 4.5 51.3042L 4.5 6.23044L -4.5 6.23044L -4.5 51.3042L 4.5 51.3042ZM 6.23044 53.0346C 5.27474 53.0346 4.5 52.2598 4.5 51.3042L -4.5 51.3042C -4.5 57.2304 0.30418 62.0346 6.23044 62.0346L 6.23044 53.0346ZM 53.0346 51.3042C 53.0346 52.2598 52.2598 53.0346 51.3042 53.0346L 51.3042 62.0346C 57.2304 62.0346 62.0346 57.2304 62.0346 51.3042L 53.0346 51.3042ZM 51.3042 4.5C 52.2598 4.5 53.0346 5.27474 53.0346 6.23043L 62.0346 6.23043C 62.0346 0.304179 57.2304 -4.5 51.3042 -4.5L 51.3042 4.5ZM 6.23043 -4.5C 0.304179 -4.5 -4.5 0.30418 -4.5 6.23044L 4.5 6.23044C 4.5 5.27474 5.27474 4.5 6.23043 4.5L 6.23043 -4.5Z"/>
<path id="path50_fill" d="M 0 2.82364C 0 1.26418 1.26418 0 2.82363 0L 23.2511 0C 24.8105 0 26.0747 1.26418 26.0747 2.82363L 26.0747 23.2511C 26.0747 24.8105 24.8105 26.0747 23.2511 26.0747L 2.82364 26.0747C 1.26418 26.0747 0 24.8105 0 23.2511L 0 2.82364Z"/>
<path id="path51_stroke_2x" d="M 2.82363 4.5L 23.2511 4.5L 23.2511 -4.5L 2.82363 -4.5L 2.82363 4.5ZM 21.5747 2.82363L 21.5747 23.2511L 30.5747 23.2511L 30.5747 2.82363L 21.5747 2.82363ZM 23.2511 21.5747L 2.82364 21.5747L 2.82364 30.5747L 23.2511 30.5747L 23.2511 21.5747ZM 4.5 23.2511L 4.5 2.82364L -4.5 2.82364L -4.5 23.2511L 4.5 23.2511ZM 2.82364 21.5747C 3.74947 21.5747 4.5 22.3252 4.5 23.2511L -4.5 23.2511C -4.5 27.2958 -1.2211 30.5747 2.82364 30.5747L 2.82364 21.5747ZM 21.5747 23.2511C 21.5747 22.3252 22.3252 21.5747 23.2511 21.5747L 23.2511 30.5747C 27.2958 30.5747 30.5747 27.2958 30.5747 23.2511L 21.5747 23.2511ZM 23.2511 4.5C 22.3252 4.5 21.5747 3.74947 21.5747 2.82363L 30.5747 2.82363C 30.5747 -1.2211 27.2958 -4.5 23.2511 -4.5L 23.2511 4.5ZM 2.82363 -4.5C -1.2211 -4.5 -4.5 -1.2211 -4.5 2.82364L 4.5 2.82364C 4.5 3.74947 3.74947 4.5 2.82363 4.5L 2.82363 -4.5Z"/>
<path id="path52_fill" d="M 0 57.9883C 0 25.9623 24.6796 0 55.1234 0L 181.907 0C 212.351 0 237.031 25.9623 237.031 57.9883L 237.031 191.361C 237.031 223.388 212.351 249.35 181.907 249.35L 55.1234 249.35C 24.6796 249.35 0 223.388 0 191.361L 0 57.9883Z"/>
<path id="path53_fill" d="M 0 12.8151C 0 5.73753 5.73753 0 12.8151 0L 42.2899 0C 49.3675 0 55.105 5.73753 55.105 12.8151L 55.105 42.2899C 55.105 49.3675 49.3675 55.105 42.2899 55.105L 12.8151 55.105C 5.73753 55.105 0 49.3675 0 42.2899L 0 12.8151Z"/>
<path id="path54_stroke_2x" d="M 12.8151 4.5L 42.2899 4.5L 42.2899 -4.5L 12.8151 -4.5L 12.8151 4.5ZM 50.605 12.8151L 50.605 42.2899L 59.605 42.2899L 59.605 12.8151L 50.605 12.8151ZM 42.2899 50.605L 12.8151 50.605L 12.8151 59.605L 42.2899 59.605L 42.2899 50.605ZM 4.5 42.2899L 4.5 12.8151L -4.5 12.8151L -4.5 42.2899L 4.5 42.2899ZM 12.8151 50.605C 8.22281 50.605 4.5 46.8822 4.5 42.2899L -4.5 42.2899C -4.5 51.8528 3.25225 59.605 12.8151 59.605L 12.8151 50.605ZM 50.605 42.2899C 50.605 46.8822 46.8822 50.605 42.2899 50.605L 42.2899 59.605C 51.8528 59.605 59.605 51.8528 59.605 42.2899L 50.605 42.2899ZM 42.2899 4.5C 46.8822 4.5 50.605 8.22281 50.605 12.8151L 59.605 12.8151C 59.605 3.25225 51.8528 -4.5 42.2899 -4.5L 42.2899 4.5ZM 12.8151 -4.5C 3.25225 -4.5 -4.5 3.25225 -4.5 12.8151L 4.5 12.8151C 4.5 8.22281 8.22281 4.5 12.8151 4.5L 12.8151 -4.5Z"/>
<path id="path55_fill" d="M 0 19.9861C 0 8.94806 8.94806 0 19.9861 0L 65.954 0C 76.992 0 85.94 8.94806 85.94 19.9861L 85.94 65.954C 85.94 76.992 76.992 85.94 65.954 85.94L 19.9861 85.94C 8.94806 85.94 0 76.992 0 65.954L 0 19.9861Z"/>
<path id="path56_fill" d="M 0 7.68667C 0 3.44144 3.44144 0 7.68667 0L 25.366 0C 29.6113 0 33.0527 3.44144 33.0527 7.68667L 33.0527 25.366C 33.0527 29.6113 29.6113 33.0527 25.366 33.0527L 7.68667 33.0527C 3.44144 33.0527 0 29.6113 0 25.366L 0 7.68667Z"/>
<path id="path57_fill" fill-rule="evenodd" d="M 80.5639 41.1289C 77.9229 43.292 70.6498 47.4742 61.3247 48.3135C 55.9378 49.287 42.2459 49.5892 36.0734 49.6186C 47.4622 54.6232 61.6998 58.1186 79.1209 58.3841L 80.5639 41.1289Z"/>
<path id="path58_fill" d="M 34.3899 0C 30.5421 4.01834 18.2772 13.0951 0 17.2552C 3.69399 25.9486 15.0127 40.364 36.0733 49.6186C 42.2459 49.5892 55.9377 49.2871 61.3247 48.3135C 60.4598 48.3913 59.5774 48.4404 58.6793 48.4565C 48.0978 48.6456 38.0774 16.2309 34.3899 0Z"/>
<path id="path59_fill" fill-rule="evenodd" d="M 0 76.4156C 6.12485 96.6496 6.92691 133.279 6.56233 149.064C 20.7131 141.668 32.5536 130.255 42.3767 116.776C 46.0913 92.6674 40.8289 73.1868 37.7334 66.4601C 26.14 71.6262 7.7472 75.2496 0 76.4156Z"/>
<path id="path60_fill" d="M 21.0542 25.0234C 28.7102 35.3557 35.3637 56.9529 37.7334 66.4601C 40.8289 73.1868 46.0913 92.6674 42.3767 116.776C 69.1486 80.0389 80.936 27.9518 83.6698 0C 72.0763 6.02715 37.0954 19.1936 21.0542 25.0234Z"/>
<path id="path61_fill" d="M 0 39.6763C 2.90416 28.6425 8.66662 5.25995 8.4832 0C 18.2656 1.88935 37.0968 7.98061 34.1621 17.2309C 29.118 45.5711 22.3773 65.2052 11.9223 63.0287L 15.1322 43.3039C 13.298 41.6412 7.70366 38.5881 0 39.6763Z"/>
<path id="path62_fill" fill-rule="evenodd" d="M 11.9223 63.0287C 22.3773 65.2052 29.118 45.5711 34.1621 17.2309C 31.2274 15.7798 24.8382 16.6263 22.0105 17.2309C 21.2768 20.677 17.1193 36.0488 15.1322 43.3039L 11.9223 63.0287Z"/>
<path id="path63_fill" d="M 0 70.4059C 5.15345 50.8263 15.379 9.33381 15.0535 0C 32.4125 3.35266 65.8285 14.1616 60.6208 30.5763C 51.6701 80.8662 39.7087 115.707 21.1563 111.845L 26.8522 76.843C 23.5974 73.8926 13.6702 68.4747 0 70.4059Z"/>
<path id="path64_fill" fill-rule="evenodd" d="M 21.1563 111.845C 39.7087 115.707 51.6701 80.8662 60.6208 30.5763C 55.4131 28.0014 44.0755 29.5034 39.0577 30.5763C 37.7558 36.6915 30.3782 63.9688 26.8522 76.843L 21.1563 111.845Z"/>
<path id="path65_fill" fill-rule="evenodd" d="M 0 66.727C 5.34829 84.3955 6.04866 116.381 5.73031 130.165C 18.0869 123.706 28.4262 113.741 37.0038 101.97C 40.2474 80.9182 35.6523 63.9075 32.9493 58.0337C 22.8257 62.5448 6.76494 65.7088 0 66.727Z"/>
<path id="path66_fill" d="M 18.3847 21.8507C 25.0701 30.873 30.88 49.732 32.9493 58.0337C 35.6523 63.9075 40.2474 80.9182 37.0038 101.97C 60.3814 69.8909 70.6742 24.4078 73.0614 0C 62.9379 5.26297 32.3921 16.7601 18.3847 21.8507Z"/>
<path id="path67_fill" d="M 18.5963 1.4302C 13.8198 -1.17073 7.4142 0.245567 3.09304 1.97228C 1.67167 2.54026 1.62138 4.41206 2.93207 5.20262L 51.4982 34.4958L 60.6825 26.2568C 49.2094 19.4101 24.7298 4.77005 18.5963 1.4302Z"/>
<path id="path68_fill" d="M 34.8774 40.1487L 3.7719 20.0961C 1.62609 18.7127 0.867112 15.935 2.01137 13.6527L 8.85637 0L 33.5286 13.8955C 35.8028 15.1764 38.6105 14.3982 40.5639 12.6669C 43.6059 9.97086 46.5347 9.58171 47.89 9.83209C 53.2811 15.0816 47.039 29.3348 41.632 38.6267C 40.2539 40.9948 37.1802 41.6332 34.8774 40.1487Z"/>
<path id="path69_fill" d="M 835.5 33.667C 1134.81 -17.757 1393.49 -4.64056 1600 35.2901L 1600 541.72L 0 541.72L 0 5.69062C 172.551 65.8751 444.859 100.782 835.5 33.667Z"/>
<path id="path70_fill" d="M 404.852 70.7372C 528.38 176.276 674.37 166.436 776.754 148.457C 756.49 164.962 745.39 174.591 724.5 189.82L 0 189.82L 5.29185e-06 32.7593C 140.472 -3.70096 286.274 -30.5713 404.852 70.7372Z"/>
<path id="path71_fill" d="M 0 372.775C 123.898 279.793 245.958 141.132 446.19 178.276C 662.309 218.368 808.445 55.0237 875.69 0L 875.69 372.775L 0 372.775Z"/>
<path id="path72_fill" fill-rule="evenodd" d="M 131.098 67.9651C 126.801 71.5397 114.966 78.4508 99.7913 79.8376C 91.0253 81.4464 68.7451 81.9457 58.7008 81.9943C 77.2334 90.2643 100.402 96.0406 128.75 96.4792L 131.098 67.9651Z"/>
<path id="path73_fill" d="M 55.9614 0C 49.7 6.64027 29.7417 21.6395 0 28.5141C 6.0111 42.8799 24.4297 66.7011 58.7008 81.9943C 68.7451 81.9457 91.0254 81.4464 99.7913 79.8376C 98.384 79.9663 96.948 80.0474 95.4866 80.0739C 78.2677 80.3864 61.9619 26.8215 55.9614 0Z"/>
<path id="path74_fill" d="M 31.9922 2.50929C 22.8589 -2.56272 10.2636 1.07239 2.97773 4.48474C 1.60535 5.1275 1.56898 6.99029 2.85977 7.7843L 88.5951 60.5229L 104.395 46.0676C 84.6576 34.055 42.544 8.36907 31.9922 2.50929Z"/>
<path id="path75_fill" d="M 62.9447 72.376L 3.68695 33.4164C 1.58046 32.0314 0.834464 29.2949 1.94667 27.0326L 15.2361 0L 60.5317 26.017C 62.8242 27.3339 65.7112 26.5977 67.4503 24.6063C 73.4631 17.7212 79.7103 16.746 82.3878 17.2504C 92.2734 27.0677 79.4217 54.8321 69.8078 70.8728C 68.3812 73.2531 65.2634 73.9005 62.9447 72.376Z"/>
<path id="path76_fill" fill-rule="evenodd" d="M 0 75.841C 5.96278 95.9228 6.74362 132.277 6.38869 147.943C 20.165 140.603 31.6922 129.276 41.2553 115.898C 44.8717 91.9706 39.7486 72.6365 36.735 65.9603C 25.4483 71.0876 7.5422 74.6838 0 75.841Z"/>
<path id="path77_fill" d="M 20.497 24.8353C 27.9505 35.0898 34.4279 56.5247 36.735 65.9603C 39.7486 72.6365 44.8717 91.9706 41.2553 115.898C 67.3189 79.437 78.7943 27.7416 81.4558 0C 70.1691 5.98183 36.1138 19.0493 20.497 24.8353Z"/>
<path id="path78_fill" d="M 0 90.8186C 6.64758 65.5624 19.8378 12.04 19.4179 0C 41.8098 4.32469 84.9141 18.2675 78.1966 39.4412C 66.6508 104.312 51.2214 149.254 27.2901 144.272L 34.6374 99.122C 30.4389 95.3163 17.6336 88.3276 0 90.8186Z"/>
<path id="path79_fill" fill-rule="evenodd" d="M 27.2901 144.272C 51.2214 149.254 66.6508 104.312 78.1966 39.4412C 71.479 36.1199 56.8543 38.0573 50.3817 39.4412C 48.7023 47.3295 39.1857 82.5152 34.6374 99.122L 27.2901 144.272Z"/>
<path id="path80_stroke" d="M 1 -2C 0.447715 -2 0 -1.55228 0 -1C 0 -0.447715 0.447715 0 1 0L 1 -2ZM 141 0C 141.552 0 142 -0.447715 142 -1C 142 -1.55228 141.552 -2 141 -2L 141 0ZM 6 0C 6.55228 0 7 -0.447715 7 -1C 7 -1.55228 6.55228 -2 6 -2L 6 0ZM 16 -2C 15.4477 -2 15 -1.55228 15 -1C 15 -0.447715 15.4477 0 16 0L 16 -2ZM 26 0C 26.5523 0 27 -0.447715 27 -1C 27 -1.55228 26.5523 -2 26 -2L 26 0ZM 36 -2C 35.4477 -2 35 -1.55228 35 -1C 35 -0.447715 35.4477 0 36 0L 36 -2ZM 46 0C 46.5523 0 47 -0.447715 47 -1C 47 -1.55228 46.5523 -2 46 -2L 46 0ZM 56 -2C 55.4477 -2 55 -1.55228 55 -1C 55 -0.447715 55.4477 0 56 0L 56 -2ZM 66 0C 66.5523 0 67 -0.447715 67 -1C 67 -1.55228 66.5523 -2 66 -2L 66 0ZM 76 -2C 75.4477 -2 75 -1.55228 75 -1C 75 -0.447715 75.4477 0 76 0L 76 -2ZM 86 0C 86.5523 0 87 -0.447715 87 -1C 87 -1.55228 86.5523 -2 86 -2L 86 0ZM 96 -2C 95.4477 -2 95 -1.55228 95 -1C 95 -0.447715 95.4477 0 96 0L 96 -2ZM 106 0C 106.552 0 107 -0.447715 107 -1C 107 -1.55228 106.552 -2 106 -2L 106 0ZM 116 -2C 115.448 -2 115 -1.55228 115 -1C 115 -0.447715 115.448 0 116 0L 116 -2ZM 126 0C 126.552 0 127 -0.447715 127 -1C 127 -1.55228 126.552 -2 126 -2L 126 0ZM 136 -2C 135.448 -2 135 -1.55228 135 -1C 135 -0.447715 135.448 0 136 0L 136 -2ZM 1 0L 6 0L 6 -2L 1 -2L 1 0ZM 16 0L 26 0L 26 -2L 16 -2L 16 0ZM 36 0L 46 0L 46 -2L 36 -2L 36 0ZM 56 0L 66 0L 66 -2L 56 -2L 56 0ZM 76 0L 86 0L 86 -2L 76 -2L 76 0ZM 96 0L 106 0L 106 -2L 96 -2L 96 0ZM 116 0L 126 0L 126 -2L 116 -2L 116 0ZM 136 0L 141 0L 141 -2L 136 -2L 136 0Z"/>
</defs>
</svg>
