<svg width="930" height="220" viewBox="0 0 930 220" version="1.1" xmlns="http://www.w3.org/2000/svg" xmlns:xlink="http://www.w3.org/1999/xlink">
<title>Full Logo</title>
<desc>Created using Figma</desc>
<g id="Canvas" transform="translate(-4989 2095)">
<g id="Full Logo">
<g id="Group 9">
<g id="Press Kite">
<use xlink:href="#path0_fill" transform="translate(5229.16 -2039.75)" fill="#181A6F"/>
<use xlink:href="#path1_fill" transform="translate(5229.16 -2039.75)" fill="#181A6F"/>
<use xlink:href="#path2_fill" transform="translate(5229.16 -2039.75)" fill="#181A6F"/>
<use xlink:href="#path3_fill" transform="translate(5229.16 -2039.75)" fill="#181A6F"/>
<use xlink:href="#path4_fill" transform="translate(5229.16 -2039.75)" fill="#181A6F"/>
</g>
<g id="Press Kite">
<use xlink:href="#path5_fill" transform="translate(5654.64 -2045.64)" fill="#1746FF"/>
<use xlink:href="#path6_fill" transform="translate(5654.64 -2045.64)" fill="#1746FF"/>
<use xlink:href="#path7_fill" transform="translate(5654.64 -2045.64)" fill="#1746FF"/>
<use xlink:href="#path8_fill" transform="translate(5654.64 -2045.64)" fill="#1746FF"/>
</g>
</g>
<g id="Blue Logo Redux">
<g id="Vector 12 (Stroke)">
<use xlink:href="#path9_fill" transform="translate(4989.36 -1967.61)" fill="#181A6F"/>
</g>
<g id="Vector">
<use xlink:href="#path10_fill" transform="matrix(0.868778 0.495202 -0.504813 0.863229 5075.9 -2078.99)" fill="#6986FF"/>
<use xlink:href="#path11_fill" transform="matrix(0.868778 0.495202 -0.504813 0.863229 5075.9 -2078.99)" fill="#6986FF"/>
</g>
<g id="Vector">
<use xlink:href="#path12_fill" transform="matrix(0.868778 0.495202 -0.504813 0.863229 5111.01 -2059.18)" fill="#034EFF"/>
<use xlink:href="#path13_fill" transform="matrix(0.868778 0.495202 -0.504813 0.863229 5111.01 -2059.18)" fill="#034EFF"/>
</g>
<g id="Vector">
<use xlink:href="#path14_fill" transform="matrix(1 -7.67285e-09 7.87205e-09 1 5110.43 -2094.73)" fill="#72B3FF"/>
<use xlink:href="#path15_fill" transform="matrix(1 -7.67285e-09 7.87205e-09 1 5110.43 -2094.73)" fill="#72B3FF"/>
</g>
<g id="Vector">
<use xlink:href="#path16_fill" transform="matrix(0.868778 0.495202 -0.504813 0.863229 5115.69 -2058.46)" fill="#5C7DFF"/>
<use xlink:href="#path17_fill" transform="matrix(0.868778 0.495202 -0.504813 0.863229 5115.69 -2058.46)" fill="#5C7DFF"/>
</g>
<g id="Vector">
<use xlink:href="#path18_fill" transform="matrix(0.868778 0.495202 -0.504813 0.863229 5117.31 -2061.21)" fill="#EDF5FF"/>
<use xlink:href="#path19_fill" transform="matrix(0.868778 0.495202 -0.504813 0.863229 5117.31 -2061.21)" fill="#EDF5FF"/>
</g>
<g id="Vector">
<use xlink:href="#path20_fill" transform="matrix(1 -7.67285e-09 7.87205e-09 1 5071.92 -2094.73)" fill="#6E99FF"/>
<use xlink:href="#path21_fill" transform="matrix(1 -7.67285e-09 7.87205e-09 1 5071.92 -2094.73)" fill="#6E99FF"/>
</g>
<g id="Rectangle">
<use xlink:href="#path22_fill" transform="matrix(0.62803 0.778189 -0.801506 0.597987 5133.1 -2042.62)" fill="#DAE7F7"/>
</g>
<g id="Rectangle">
<use xlink:href="#path23_fill" transform="matrix(0.62803 0.778189 -0.801506 0.597987 5130.13 -2034.67)" fill="#DAE7F7"/>
</g>
<g id="Rectangle">
<use xlink:href="#path24_fill" transform="matrix(0.62803 0.778189 -0.801506 0.597987 5126.45 -2027.14)" fill="#DAE7F7"/>
</g>
<g id="Rectangle">
<use xlink:href="#path25_fill" transform="matrix(0.62803 0.778189 -0.801506 0.597987 5124.51 -2017.93)" fill="#DAE7F7"/>
</g>
</g>
</g>
</g>
<defs>
<path id="path0_fill" d="M 42.8965 0C 55.7992 0 65.7651 3.1994 72.7941 9.5982C 79.8232 15.897 83.3377 24.8453 83.3377 36.4432C 83.3377 48.6409 79.7751 58.1391 72.6497 64.9378C 65.6206 71.6366 55.7029 74.9859 42.8965 74.9859L 22.8204 74.9859L 22.8204 104.98L 0 104.98L 0 0L 42.8965 0ZM 41.7411 55.1896C 48.1924 55.1896 53.1031 53.6899 56.4732 50.6905C 59.9396 47.5911 61.6728 43.0919 61.6728 37.193C 61.6728 31.3941 59.9396 27.0449 56.4732 24.1455C 53.1031 21.146 48.1924 19.6463 41.7411 19.6463L 22.8204 19.6463L 22.8204 55.1896L 41.7411 55.1896Z"/>
<path id="path1_fill" d="M 119.696 38.8427C 122.393 33.8436 125.907 30.0444 130.24 27.4448C 134.573 24.8453 139.628 23.4956 145.405 23.3956L 145.405 45.1415C 144.635 45.0415 143.48 44.9916 141.939 44.9916C 135.103 44.9916 129.662 46.9412 125.618 50.8405C 121.67 54.6397 119.696 59.7388 119.696 66.1376L 119.696 104.98L 97.4538 104.98L 97.4538 24.2954L 119.696 24.2954L 119.696 38.8427Z"/>
<path id="path2_fill" d="M 190.904 23.5456C 203.422 23.5456 212.906 27.2949 219.357 34.7935C 225.905 42.2921 229.179 52.7401 229.179 66.1376C 229.179 68.5371 229.131 70.3868 229.034 71.6865L 173.283 71.6865C 174.535 76.7856 176.942 80.7848 180.505 83.6843C 184.068 86.4838 188.352 87.8835 193.359 87.8835C 197.018 87.8835 200.533 87.1836 203.903 85.7839C 207.273 84.2842 210.306 82.1346 213.002 79.3351L 224.701 91.6328C 220.754 96.2319 215.939 99.7813 210.258 102.281C 204.673 104.68 198.415 105.88 191.482 105.88C 183.297 105.88 176.124 104.18 169.961 100.781C 163.895 97.3817 159.177 92.5826 155.807 86.3838C 152.533 80.1849 150.896 73.0363 150.896 64.9378C 150.896 56.7393 152.581 49.5407 155.951 43.3419C 159.321 37.043 164.04 32.194 170.106 28.7946C 176.172 25.2952 183.105 23.5456 190.904 23.5456ZM 208.236 58.0391C 208.043 52.7401 206.407 48.4909 203.325 45.2915C 200.244 42.0921 196.152 40.4924 191.049 40.4924C 186.234 40.4924 182.19 42.0921 178.916 45.2915C 175.739 48.3909 173.717 52.6401 172.85 58.0391L 208.236 58.0391Z"/>
<path id="path3_fill" d="M 292.683 47.991C 288.446 45.4915 284.258 43.5918 280.117 42.2921C 275.977 40.8923 272.27 40.1925 268.996 40.1925C 266.3 40.1925 264.133 40.6924 262.497 41.6922C 260.86 42.692 260.041 44.1917 260.041 46.1913C 260.041 48.3909 261.148 50.0906 263.363 51.2904C 265.578 52.4902 269.189 53.8399 274.196 55.3396C 279.684 57.0393 284.21 58.739 287.772 60.4387C 291.335 62.0384 294.416 64.4879 297.016 67.7873C 299.616 70.9867 300.916 75.2359 300.916 80.5349C 300.916 88.5334 297.931 94.7822 291.961 99.2814C 286.087 103.681 278.529 105.88 269.285 105.88C 262.93 105.88 256.815 104.93 250.942 103.031C 245.068 101.031 239.965 98.2316 235.632 94.6322L 242.854 79.0352C 246.801 82.2346 251.183 84.7341 255.997 86.5338C 260.908 88.2334 265.53 89.0833 269.863 89.0833C 272.848 89.0833 275.207 88.5834 276.94 87.5836C 278.769 86.4838 279.684 84.8841 279.684 82.7845C 279.684 80.4849 278.529 78.6852 276.218 77.3855C 274.003 76.0857 270.392 74.686 265.385 73.1863C 260.089 71.5866 255.66 69.9869 252.097 68.3872C 248.631 66.7875 245.646 64.3879 243.143 61.1885C 240.639 57.8891 239.387 53.6399 239.387 48.4409C 239.387 40.4424 242.276 34.2436 248.053 29.8444C 253.831 25.4452 261.148 23.2456 270.007 23.2456C 275.303 23.2456 280.599 24.0455 285.895 25.6452C 291.19 27.1449 296.005 29.3445 300.338 32.2439L 292.683 47.991Z"/>
<path id="path4_fill" d="M 364.758 47.991C 360.522 45.4915 356.333 43.5918 352.193 42.2921C 348.052 40.8923 344.345 40.1925 341.071 40.1925C 338.375 40.1925 336.209 40.6924 334.572 41.6922C 332.935 42.692 332.117 44.1917 332.117 46.1913C 332.117 48.3909 333.224 50.0906 335.438 51.2904C 337.653 52.4902 341.264 53.8399 346.271 55.3396C 351.759 57.0393 356.285 58.739 359.848 60.4387C 363.41 62.0384 366.492 64.4879 369.091 67.7873C 371.691 70.9867 372.991 75.2359 372.991 80.5349C 372.991 88.5334 370.006 94.7822 364.036 99.2814C 358.163 103.681 350.604 105.88 341.36 105.88C 335.005 105.88 328.891 104.93 323.017 103.031C 317.144 101.031 312.04 98.2316 307.707 94.6322L 314.929 79.0352C 318.877 82.2346 323.258 84.7341 328.072 86.5338C 332.983 88.2334 337.605 89.0833 341.938 89.0833C 344.923 89.0833 347.282 88.5834 349.015 87.5836C 350.845 86.4838 351.759 84.8841 351.759 82.7845C 351.759 80.4849 350.604 78.6852 348.293 77.3855C 346.078 76.0857 342.468 74.686 337.461 73.1863C 332.165 71.5866 327.735 69.9869 324.173 68.3872C 320.706 66.7875 317.721 64.3879 315.218 61.1885C 312.714 57.8891 311.463 53.6399 311.463 48.4409C 311.463 40.4424 314.351 34.2436 320.129 29.8444C 325.906 25.4452 333.224 23.2456 342.082 23.2456C 347.378 23.2456 352.674 24.0455 357.97 25.6452C 363.266 27.1449 368.08 29.3445 372.413 32.2439L 364.758 47.991Z"/>
<path id="path5_fill" d="M 84.7821 110.979L 68.0279 110.979L 32.4974 62.5383L 13.8656 83.5343L 13.8656 110.979L 0 110.979L 0 5.99887L 13.8656 5.99887L 13.8656 64.9378L 65.5725 5.99887L 82.1823 5.99887L 42.1744 51.2904L 84.7821 110.979Z"/>
<path id="path6_fill" d="M 100.819 31.6441L 114.251 31.6441L 114.251 110.979L 100.819 110.979L 100.819 31.6441ZM 107.463 0C 109.87 0 111.844 0.849841 113.384 2.54952C 115.021 4.2492 115.84 6.3988 115.84 8.99831C 115.84 11.5978 115.021 13.7474 113.384 15.4471C 111.844 17.1468 109.87 17.9966 107.463 17.9966C 105.055 17.9966 103.033 17.1468 101.396 15.4471C 99.8557 13.7474 99.0854 11.5978 99.0854 8.99831C 99.0854 6.3988 99.8557 4.2492 101.396 2.54952C 103.033 0.849841 105.055 0 107.463 0Z"/>
<path id="path7_fill" d="M 181.472 105.73C 175.598 109.629 169.628 111.579 163.562 111.579C 157.496 111.579 152.585 109.729 148.83 106.03C 145.075 102.231 143.197 96.5319 143.197 88.9333L 143.197 44.9916L 132.365 44.9916L 132.365 34.3436L 143.197 34.3436L 143.197 13.0476L 156.774 13.0476L 156.774 34.3436L 180.172 34.3436L 180.172 44.9916L 156.774 44.9916L 156.774 86.3838C 156.774 90.783 157.544 93.9324 159.085 95.832C 160.625 97.7317 162.936 98.6815 166.018 98.6815C 169.677 98.6815 173.624 97.4317 177.861 94.9322L 181.472 105.73Z"/>
<path id="path8_fill" d="M 227.492 31.1941C 239.335 31.1941 248.29 34.8435 254.356 42.1421C 260.423 49.3407 263.456 59.3889 263.456 72.2864C 263.456 74.2861 263.407 75.7858 263.311 76.7856L 202.938 76.7856C 203.997 83.8843 206.838 89.5332 211.46 93.7324C 216.178 97.9316 221.955 100.031 228.792 100.031C 233.317 100.031 237.506 99.1814 241.357 97.4817C 245.305 95.782 248.723 93.3825 251.612 90.2831L 258.978 98.2316C 255.223 102.431 250.697 105.68 245.402 107.98C 240.106 110.279 234.232 111.429 227.781 111.429C 220.27 111.429 213.578 109.779 207.705 106.48C 201.927 103.081 197.402 98.3316 194.128 92.2327C 190.95 86.1338 189.362 79.1851 189.362 71.3866C 189.362 63.5881 190.95 56.6894 194.128 50.6905C 197.402 44.5916 201.927 39.8425 207.705 36.4432C 213.482 32.9438 220.078 31.1941 227.492 31.1941ZM 251.323 65.9876C 250.938 58.789 248.627 53.14 244.39 49.0408C 240.154 44.8416 234.569 42.742 227.636 42.742C 220.896 42.742 215.263 44.8416 210.738 49.0408C 206.308 53.24 203.66 58.889 202.794 65.9876L 251.323 65.9876Z"/>
<path id="path9_fill" fill-rule="evenodd" d="M 75.5495 0L 72.4539 5.24051C 66.8857 8.85785 61.7201 12.7243 54.3811 27.6181C 49.9877 37.273 49.8482 44.5085 51.2571 50.3147C 58.0506 44.7784 66.339 38.2065 74.8955 38.9093C 113.279 38.9457 76.0806 99.9565 49.8941 56.7661C 35.0024 70.0908 20.8379 86.2146 1.22518 92.5233L 0 88.825C 19.8374 83.8098 46.3293 53.5534 47.8042 52.7681C 42.1889 27.0499 64.0699 3.1616 75.5495 0ZM 74.8955 42.5012C 105.736 42.272 73.9186 93.0759 52.7335 54.3202C 58.6583 49.5463 66.2756 42.5012 74.8955 42.5012Z"/>
<path id="path10_fill" fill-rule="evenodd" d="M 40.4117 0L 16.7335 45.9932L 44.723 112.661L 40.4117 0Z"/>
<path id="path11_fill" d="M 40.4117 0L 0 7.278L 16.7335 45.9932L 40.4117 0Z"/>
<path id="path12_fill" fill-rule="evenodd" d="M 37.1507 47.0908L 4.35183 112.714L 0 0L 37.1507 47.0908Z"/>
<path id="path13_fill" d="M 56.5582 8.14636L 0 0L 37.1507 47.0908L 56.5582 8.14636Z"/>
<path id="path14_fill" fill-rule="evenodd" d="M 0 35.7197L 36.1134 35.4925L 26.4806 0L 0 35.7197Z"/>
<path id="path15_fill" d="M 0 35.7197L 45.7462 70.985C 41.9844 57.1243 39.8752 49.3532 36.1134 35.4925L 0 35.7197Z"/>
<path id="path16_fill" fill-rule="evenodd" d="M 32.9245 49.0033L 0 114.527L 4.45266 1.22168e-06L 32.9245 49.0033Z"/>
<path id="path17_fill" d="M 52.468 10.1092L 4.45266 1.22168e-06L 32.9245 49.0033L 52.468 10.1092Z"/>
<path id="path18_fill" fill-rule="evenodd" d="M 32.9245 52.198L 0 117.722L 19.1997 0L 32.9245 52.198Z"/>
<path id="path19_fill" d="M 52.468 13.304L 19.1997 0L 32.9245 52.198L 52.468 13.304Z"/>
<path id="path20_fill" fill-rule="evenodd" d="M 38.4796 35.757L 32.2927 11.3467L -5.90056e-06 21.8865L 38.4796 35.757Z"/>
<path id="path21_fill" d="M 38.4796 35.757L 64.9867 0L 32.2927 11.3467L 38.4796 35.757Z"/>
<path id="path22_fill" d="M 0 1.4649C 0 0.65655 0.656547 0.00190855 1.4649 0.00425839L 23.019 0.0669151C 23.824 0.0692553 24.4754 0.722523 24.4754 1.52756C 24.4754 2.33591 23.8189 2.99056 23.0105 2.98821L 1.45641 2.92555C 0.651372 2.92321 0 2.26994 0 1.4649Z"/>
<path id="path23_fill" d="M 0 1.47862C 0 0.664959 0.664908 0.00817713 1.47851 0.0181829L 17.9515 0.22077C 18.7511 0.230604 19.3941 0.881575 19.3941 1.68121C 19.3941 2.49487 18.7292 3.15165 17.9156 3.14164L 1.44259 2.93906C 0.643014 2.92922 0 2.27825 0 1.47862Z"/>
<path id="path24_fill" d="M 0 1.46066C 0 0.653959 0.653959 0 1.46066 0L 13.7218 0C 14.5285 0 15.1824 0.653959 15.1824 1.46066C 15.1824 2.26736 14.5285 2.92132 13.7218 2.92132L 1.46066 2.92132C 0.653959 2.92132 0 2.26736 0 1.46066Z"/>
<path id="path25_fill" d="M 0 1.46066C 0 0.653959 0.653959 0 1.46066 0L 7.00983 0C 7.81653 0 8.47049 0.653959 8.47049 1.46066C 8.47049 2.26736 7.81653 2.92132 7.00983 2.92132L 1.46066 2.92132C 0.653959 2.92132 0 2.26736 0 1.46066Z"/>
</defs>
</svg>
